<?xml version="1.0" encoding="utf-8"?>
<!-- Generator: Adobe Illustrator 18.0.0, SVG Export Plug-In . SVG Version: 6.00 Build 0)  -->
<!DOCTYPE svg PUBLIC "-//W3C//DTD SVG 1.1//EN" "http://www.w3.org/Graphics/SVG/1.1/DTD/svg11.dtd">
<svg version="1.1" id="Layer_1" xmlns="http://www.w3.org/2000/svg" xmlns:xlink="http://www.w3.org/1999/xlink" x="0px" y="0px"
	 viewBox="465.7 -111.7 73 73" enable-background="new 465.7 -111.7 73 73" xml:space="preserve">
<path fill="#449557" d="M502.2-38.6c-20.1,0-36.5-16.4-36.5-36.5s16.4-36.5,36.5-36.5c20.1,0,36.5,16.4,36.5,36.5
	S522.3-38.6,502.2-38.6z M502.2-110.9c-19.7,0-35.8,16-35.8,35.8s16,35.8,35.8,35.8s35.8-16,35.8-35.8S521.9-110.9,502.2-110.9z"/>
<path fill="#449557" d="M500.3-50.8c-0.4,0-0.8-0.1-1.2-0.3l-16.8-9.6c-0.6-0.3-1.1-0.9-1.2-1.6c-0.2-0.6-0.1-1.3,0.2-1.9l12.2-20.8
	l10.3-6.3l4.3,2.4l0-0.1c0.4-2.4,1.1-6.3,5.6-9.7c1.5-1.2,3.6-1.2,5.7-0.2c0.2,0.1,0.3,0.2,0.5,0.3c2.1,1.2,3.5,3.2,3.5,5.1
	c-0.1,1.7-1.2,3.1-3.1,4.1c-0.3,0.2-0.6,0.3-0.9,0.5c-2.1,0.9-3.9,1.2-5.6,1.4l-0.2,0c-0.9,0.1-1.7,0.2-2.3,0.4l4.1,2.3l-0.5,11.9
	l-0.1,0.1l-12.2,20.7c-0.3,0.6-0.9,1-1.6,1.2C500.8-50.8,500.6-50.8,500.3-50.8z M494.2-84.2l-12.1,20.6c-0.2,0.3-0.2,0.7-0.1,1.1
	c0.1,0.4,0.4,0.7,0.8,0.9l16.9,9.6c0.3,0.2,0.7,0.2,1.1,0.1c0.4-0.1,0.8-0.4,1-0.8l12.1-20.6l0.5-11l-4.9-2.8c0,0-0.1,0.1-0.1,0.1
	l-0.2-0.2l-0.2,0c-0.1-0.1-0.1-0.2-0.1-0.2l0,0l-5-2.8L494.2-84.2z M516.2-98.3c-0.8,0-1.6,0.2-2.2,0.7c-3.4,2.6-4.1,5.5-4.5,7.4
	l-0.1,0.5c-0.1,0.3-0.1,0.5-0.1,0.6c-0.1,0.3-0.1,0.6-0.3,1.1c0.3-0.3,0.5-0.2,0.7-0.1c0.7-0.2,1.3-0.2,2.1-0.3c0.3,0,0.7,0,1.1-0.1
	c2-0.3,4.1-0.6,6.3-1.6c0.2-0.1,0.3-0.1,0.5-0.2c1.3-0.8,2-1.9,2.1-3.1c-0.1-0.8-0.4-1.7-0.9-2.5c-0.6-0.8-1.4-1.4-2.3-1.8
	C517.8-98.1,517-98.3,516.2-98.3z M505.6-76.4c-0.8,0-1.7-0.2-2.5-0.6c-2.4-1.4-3.2-4.3-1.8-6.7c1.2-2,3.6-2.9,5.7-2.2l0.1,0
	l2.2,1.4c1.4,1.6,1.6,3.9,0.6,5.6C509-77.3,507.3-76.4,505.6-76.4z M505.5-85.1c-1.3,0-2.6,0.7-3.4,1.9c-1.1,1.9-0.4,4.2,1.5,5.3
	c1.9,1.1,4.3,0.4,5.4-1.4l0,0c0.8-1.4,0.7-3.1-0.4-4.4l-2-1.2C506.2-85.1,505.9-85.1,505.5-85.1z"/>
</svg>
