<?xml version="1.0" encoding="utf-8"?>
<!-- Generator: Adobe Illustrator 18.0.0, SVG Export Plug-In . SVG Version: 6.00 Build 0)  -->
<!DOCTYPE svg PUBLIC "-//W3C//DTD SVG 1.1//EN" "http://www.w3.org/Graphics/SVG/1.1/DTD/svg11.dtd">
<svg version="1.1" id="Layer_1" xmlns="http://www.w3.org/2000/svg" xmlns:xlink="http://www.w3.org/1999/xlink" x="0px" y="0px"
	 viewBox="376.7 -111.7 73 73" enable-background="new 376.7 -111.7 73 73" xml:space="preserve">
<path fill="#449557" d="M413.2-38.6c-20.1,0-36.5-16.4-36.5-36.5s16.4-36.5,36.5-36.5c20.1,0,36.5,16.4,36.5,36.5
	S433.3-38.6,413.2-38.6z M413.2-110.9c-19.7,0-35.8,16-35.8,35.8s16,35.8,35.8,35.8s35.8-16,35.8-35.8S432.9-110.9,413.2-110.9z"/>
<g>
	<g>
		<path fill="none" stroke="#449557" stroke-miterlimit="10" d="M392.7-77.6c6.8,9.3,13.6,18.5,20.4,27.8c0,0,0,0,0.1,0
			c-4.5-12.7-9-25.4-13.6-38.2C397.2-84.5,395-81.1,392.7-77.6z M433.6-77.7c-2.2-3.4-4.4-6.7-6.6-10.1c0-0.1-0.1-0.1-0.1-0.2
			c-4.5,12.8-9.1,25.5-13.6,38.2c0,0,0,0,0,0c0,0,0.1-0.1,0.1-0.1c1.6-2.2,3.3-4.5,4.9-6.7c3.1-4.3,6.3-8.6,9.4-12.9
			c1.9-2.6,3.8-5.2,5.8-7.9C433.6-77.5,433.7-77.6,433.6-77.7z M413.2-88.1c1.2,0,2.1-0.6,2.8-1.5c2.5,1.7,4.9,3.3,7.4,5v-13.9
			c-2.5,1.7-4.9,3.3-7.4,5c-0.7-1-1.6-1.5-2.9-1.5c-1.2,0-2.1,0.6-2.8,1.5c-2.5-1.7-4.9-3.3-7.4-5c0,4.7,0,9.3,0,13.9
			c2.5-1.7,4.9-3.4,7.4-5C411.1-88.6,412-88.1,413.2-88.1z M414.9-65.4c0-1-0.8-1.7-1.7-1.7c-0.9,0-1.7,0.8-1.7,1.8
			c0,1,0.8,1.8,1.7,1.7C414.1-63.6,414.9-64.4,414.9-65.4z M411.5-72.3c0,1,0.8,1.7,1.7,1.7c0.9,0,1.7-0.8,1.7-1.8
			c0-1-0.8-1.7-1.7-1.7C412.2-74.1,411.5-73.3,411.5-72.3z M413.2-81.1c-1,0-1.7,0.8-1.7,1.7c0,1,0.8,1.7,1.7,1.7
			c0.9,0,1.7-0.8,1.7-1.7C414.9-80.3,414.1-81.1,413.2-81.1z"/>
	</g>
</g>
</svg>
