<?xml version="1.0" encoding="utf-8"?>
<!-- Generator: Adobe Illustrator 18.0.0, SVG Export Plug-In . SVG Version: 6.00 Build 0)  -->
<!DOCTYPE svg PUBLIC "-//W3C//DTD SVG 1.1//EN" "http://www.w3.org/Graphics/SVG/1.1/DTD/svg11.dtd">
<svg version="1.1" id="Layer_1" xmlns="http://www.w3.org/2000/svg" xmlns:xlink="http://www.w3.org/1999/xlink" x="0px" y="0px"
	 viewBox="278.7 -111.7 73 73" enable-background="new 278.7 -111.7 73 73" xml:space="preserve">
<path fill="#449557" d="M314.7-48.9l0-0.7c-23.6-13.4-23.7-26.2-23.6-27.6c0-7,5.8-12.6,13-12.6c4.6,0,8.8,2.3,11.1,6.1
	c2.3-3.8,6.5-6.1,11.1-6.1c7.2,0,13,5.6,13,12.5c0.1,0.5,1.1,13.7-23.6,27.7l-0.1,0.5l-0.3-0.2L314.7-48.9z M315.2-50.5L315.2-50.5
	c24.1-13.6,23.1-26.5,23.1-26.7c0-6.4-5.4-11.6-12-11.6c-4.5,0-8.6,2.4-10.7,6.3l-0.4,0.8l-0.4-0.8c-2.1-3.9-6.1-6.3-10.7-6.3
	c-6.6,0-12,5.2-12,11.5l0,0.1C292-75.7,292.1-63.5,315.2-50.5L315.2-50.5z"/>
<path fill="#449557" d="M315.2-38.6c-20.1,0-36.5-16.4-36.5-36.5s16.4-36.5,36.5-36.5c20.1,0,36.5,16.4,36.5,36.5
	S335.3-38.6,315.2-38.6z M315.2-110.9c-19.7,0-35.8,16-35.8,35.8s16,35.8,35.8,35.8s35.8-16,35.8-35.8S334.9-110.9,315.2-110.9z"/>
</svg>
